<svg width="24" height="24" viewBox="0 0 24 24" fill="none" xmlns="http://www.w3.org/2000/svg">
<path d="M0 12C0 5.37258 5.37258 0 12 0C18.6274 0 24 5.37258 24 12C24 18.6274 18.6274 24 12 24C5.37258 24 0 18.6274 0 12Z" fill="#020617"/>
<path d="M3 16V8H6.55543C7.06281 8 7.49825 8.08591 7.86174 8.25772C8.23281 8.42953 8.51679 8.67293 8.71368 8.98792C8.91815 9.29575 9.02038 9.66443 9.02038 10.094C9.02038 10.4877 8.91058 10.8456 8.69096 11.1678C8.47893 11.4828 8.16465 11.7298 7.74815 11.9087L7.73679 11.5114C8.10029 11.6403 8.39941 11.8121 8.63417 12.0268C8.8765 12.2345 9.05825 12.4779 9.17941 12.757C9.30058 13.0291 9.36116 13.319 9.36116 13.6268C9.36116 14.3642 9.11126 14.9441 8.61145 15.3664C8.11164 15.7888 7.43009 16 6.56679 16H3ZM4.1132 15.0336H6.61223C7.10446 15.0336 7.49825 14.9083 7.79359 14.6577C8.08893 14.4072 8.2366 14.0671 8.2366 13.6376C8.2366 13.2081 8.08893 12.868 7.79359 12.6174C7.49825 12.3597 7.10446 12.2309 6.61223 12.2309H4.1132V15.0336ZM4.1132 11.2859H6.53271C6.94165 11.2859 7.27106 11.1749 7.52097 10.953C7.77087 10.7239 7.89582 10.434 7.89582 10.0832C7.89582 9.71812 7.77087 9.43893 7.52097 9.24564C7.27106 9.05235 6.94165 8.95571 6.53271 8.95571H4.1132V11.2859Z" fill="#F1F5F9"/>
<path d="M12.3102 16L9.93613 8H11.1061L13.094 15.0443H12.8214L14.8887 8H16.0587L18.1148 15.0443H17.8308L19.83 8H21L18.6259 16H17.3878L15.3204 8.98792H15.6157L13.5484 16H12.3102Z" fill="#F1F5F9"/>
</svg>
