<svg width="20" height="20" viewBox="0 0 20 20" fill="none" xmlns="http://www.w3.org/2000/svg">
<path d="M5.31471 4.12029C5.15433 3.9599 4.89429 3.9599 4.73391 4.12029L2.12029 6.73391C1.9599 6.89429 1.9599 7.15432 2.12029 7.31471C2.28067 7.47509 2.54071 7.47509 2.70109 7.31471L4.61362 5.40218L4.61362 14.9185L2.70109 13.006C2.54071 12.8456 2.28067 12.8456 2.12029 13.006C1.9599 13.1664 1.9599 13.4264 2.12029 13.5868L4.73391 16.2004C4.89429 16.3608 5.15432 16.3608 5.31471 16.2004L7.92833 13.5868C8.08871 13.4264 8.08871 13.1664 7.92833 13.006C7.76794 12.8456 7.50791 12.8456 7.34752 13.006L5.435 14.9185L5.435 5.40218L7.34752 7.31471C7.50791 7.47509 7.76794 7.47509 7.92833 7.31471C8.08871 7.15433 8.08871 6.89429 7.92833 6.73391L5.31471 4.12029Z" fill="black"/>
<path d="M9.54202 5.23127C9.54202 5.00445 9.7259 4.82058 9.95271 4.82058L16.9344 4.82058C17.1613 4.82058 17.3451 5.00445 17.3451 5.23127C17.3451 5.45809 17.1613 5.64196 16.9344 5.64196L9.95271 5.64196C9.7259 5.64196 9.54202 5.45809 9.54202 5.23127Z" fill="black"/>
<path d="M9.95352 9.74966C9.7267 9.74966 9.54282 9.93354 9.54282 10.1604C9.54282 10.3872 9.7267 10.571 9.95352 10.571L16.9353 10.571C17.1621 10.571 17.3459 10.3872 17.3459 10.1604C17.3459 9.93354 17.1621 9.74967 16.9353 9.74967L9.95352 9.74966Z" fill="black"/>
<path d="M9.95352 14.6779C9.7267 14.6779 9.54282 14.8618 9.54282 15.0886C9.54282 15.3155 9.7267 15.4993 9.95352 15.4993L16.9353 15.4993C17.1621 15.4993 17.3459 15.3155 17.3459 15.0886C17.3459 14.8618 17.1621 14.6779 16.9353 14.6779L9.95352 14.6779Z" fill="black"/>
</svg>
