<svg width="16" height="16" viewBox="0 0 16 16" fill="none" xmlns="http://www.w3.org/2000/svg">
<g clip-path="url(#clip0_117_3486)">
<path d="M14.6668 14.666V1.33268M2.66683 12.666H4.00016C4.73654 12.666 5.3335 12.0691 5.3335 11.3327V4.66602C5.3335 3.92964 4.73654 3.33268 4.00016 3.33268H2.66683C1.93045 3.33268 1.3335 3.92964 1.3335 4.66602V11.3327C1.3335 12.0691 1.93045 12.666 2.66683 12.666ZM9.3335 11.3327H10.6668C11.4032 11.3327 12.0002 10.7357 12.0002 9.99935V5.99935C12.0002 5.26297 11.4032 4.66602 10.6668 4.66602H9.3335C8.59712 4.66602 8.00016 5.26297 8.00016 5.99935V9.99935C8.00016 10.7357 8.59712 11.3327 9.3335 11.3327Z" stroke="#71717A" stroke-linecap="round" stroke-linejoin="round"/>
</g>
<defs>
<clipPath id="clip0_117_3486">
<rect width="16" height="16" fill="white" transform="matrix(1 0 0 -1 0 16)"/>
</clipPath>
</defs>
</svg>
