<svg width="16" height="16" viewBox="0 0 16 16" fill="none" xmlns="http://www.w3.org/2000/svg">
<path d="M8.00016 14.666V1.33268M5.3335 9.33268H2.66683C2.31321 9.33268 1.97407 9.47316 1.72402 9.72321C1.47397 9.97326 1.3335 10.3124 1.3335 10.666V11.9993C1.3335 12.7327 1.9335 13.3327 2.66683 13.3327H5.3335M10.6668 9.33268H13.3335C13.6871 9.33268 14.0263 9.47316 14.2763 9.72321C14.5264 9.97326 14.6668 10.3124 14.6668 10.666V11.9993C14.6668 12.353 14.5264 12.6921 14.2763 12.9422C14.0263 13.1922 13.6871 13.3327 13.3335 13.3327H10.6668M5.3335 2.66602H4.66683C4.31321 2.66602 3.97407 2.80649 3.72402 3.05654C3.47397 3.30659 3.3335 3.64573 3.3335 3.99935V5.33268C3.3335 6.06602 3.9335 6.66602 4.66683 6.66602H5.3335M10.6668 6.66602H11.3335C11.6871 6.66602 12.0263 6.52554 12.2763 6.27549C12.5264 6.02544 12.6668 5.6863 12.6668 5.33268V3.99935C12.6668 3.64573 12.5264 3.30659 12.2763 3.05654C12.0263 2.80649 11.6871 2.66602 11.3335 2.66602H10.6668" stroke="#71717A" stroke-linecap="round" stroke-linejoin="round"/>
</svg>
