<svg width="16" height="16" viewBox="0 0 16 16" fill="none" xmlns="http://www.w3.org/2000/svg">
<g clip-path="url(#clip0_117_3490)">
<path d="M14.6668 1.33268V14.666M2.66683 13.3327H10.6668C11.4032 13.3327 12.0002 12.7357 12.0002 11.9993V10.666C12.0002 9.92964 11.4032 9.33268 10.6668 9.33268H2.66683C1.93045 9.33268 1.3335 9.92964 1.3335 10.666V11.9993C1.3335 12.7357 1.93045 13.3327 2.66683 13.3327ZM7.3335 6.66602H10.6668C11.4032 6.66602 12.0002 6.06906 12.0002 5.33268V3.99935C12.0002 3.26297 11.4032 2.66602 10.6668 2.66602H7.3335C6.59712 2.66602 6.00016 3.26297 6.00016 3.99935V5.33268C6.00016 6.06906 6.59712 6.66602 7.3335 6.66602Z" stroke="#71717A" stroke-linecap="round" stroke-linejoin="round"/>
</g>
<defs>
<clipPath id="clip0_117_3490">
<rect width="16" height="16" fill="white" transform="matrix(1 0 0 -1 0 16)"/>
</clipPath>
</defs>
</svg>
