<svg width="20" height="20" viewBox="0 0 20 20" fill="none" xmlns="http://www.w3.org/2000/svg">
<path d="M5.83333 17.5C6.71739 17.5 7.56523 17.1488 8.19036 16.5237C8.81548 15.8986 9.16667 15.0507 9.16667 14.1667V4.16667C9.16667 3.72464 8.99107 3.30072 8.67851 2.98816C8.36595 2.67559 7.94203 2.5 7.5 2.5H4.16667C3.72464 2.5 3.30072 2.67559 2.98816 2.98816C2.67559 3.30072 2.5 3.72464 2.5 4.16667V14.1667C2.5 15.0507 2.85119 15.8986 3.47631 16.5237C4.10143 17.1488 4.94928 17.5 5.83333 17.5ZM5.83333 17.5H15.8333C16.2754 17.5 16.6993 17.3244 17.0118 17.0118C17.3244 16.6993 17.5 16.2754 17.5 15.8333V12.5C17.5 12.058 17.3244 11.634 17.0118 11.3215C16.6993 11.0089 16.2754 10.8333 15.8333 10.8333H13.9167M5.83333 14.1667H5.84167M9.16659 6.6667L11.0833 4.75004C11.2693 4.5633 11.4905 4.4152 11.734 4.31424C11.9776 4.21329 12.2387 4.16148 12.5023 4.16179C12.7659 4.16209 13.0269 4.21452 13.2702 4.31605C13.5135 4.41757 13.7343 4.5662 13.9199 4.75337L15.4999 6.33337C15.6921 6.51821 15.8453 6.73961 15.9507 6.98455C16.0561 7.22948 16.1114 7.49302 16.1134 7.75964C16.1154 8.02627 16.0641 8.2906 15.9625 8.53711C15.8608 8.78361 15.7109 9.00731 15.5216 9.19504L8.24992 16.5" stroke="#27272A" stroke-linecap="round" stroke-linejoin="round"/>
</svg>
