<svg width="16" height="16" viewBox="0 0 16 16" fill="none" xmlns="http://www.w3.org/2000/svg">
<path d="M5.99984 6.66732L2.6665 10.0007M2.6665 10.0007L5.99984 13.334M2.6665 10.0007H9.6665C10.148 10.0007 10.6248 9.90581 11.0697 9.72154C11.5145 9.53728 11.9187 9.26719 12.2592 8.92671C12.5997 8.58623 12.8698 8.18202 13.0541 7.73716C13.2383 7.2923 13.3332 6.8155 13.3332 6.33398C13.3332 5.85247 13.2383 5.37567 13.0541 4.93081C12.8698 4.48595 12.5997 4.08174 12.2592 3.74126C11.9187 3.40078 11.5145 3.13069 11.0697 2.94643C10.6248 2.76216 10.148 2.66732 9.6665 2.66732H7.33317" stroke="#020617" stroke-linecap="round" stroke-linejoin="round"/>
</svg>
