<svg width="16" height="16" viewBox="0 0 16 16" fill="none" xmlns="http://www.w3.org/2000/svg">
<path d="M12.0002 5.33268V3.99935C12.0002 3.64573 11.8597 3.30659 11.6096 3.05654C11.3596 2.80649 11.0205 2.66602 10.6668 2.66602H2.66683C2.31321 2.66602 1.97407 2.80649 1.72402 3.05654C1.47397 3.30659 1.3335 3.64573 1.3335 3.99935V8.66602C1.3335 9.01964 1.47397 9.35878 1.72402 9.60882C1.97407 9.85887 2.31321 9.99935 2.66683 9.99935H8.00016M6.66683 12.666V10.026V12.126M4.66683 12.666H8.00016M12.0002 7.99935H13.3335C14.0699 7.99935 14.6668 8.5963 14.6668 9.33268V13.3327C14.6668 14.0691 14.0699 14.666 13.3335 14.666H12.0002C11.2638 14.666 10.6668 14.0691 10.6668 13.3327V9.33268C10.6668 8.5963 11.2638 7.99935 12.0002 7.99935Z" stroke="#0F172A" stroke-linecap="round" stroke-linejoin="round"/>
</svg>
