<svg width="16" height="16" viewBox="0 0 16 16" fill="none" xmlns="http://www.w3.org/2000/svg">
<path d="M1.3335 14.666V1.33268M5.3335 6.66602H8.66683C9.40321 6.66602 10.0002 6.06906 10.0002 5.33268V3.99935C10.0002 3.26297 9.40321 2.66602 8.66683 2.66602H5.3335C4.59712 2.66602 4.00016 3.26297 4.00016 3.99935V5.33268C4.00016 6.06906 4.59712 6.66602 5.3335 6.66602ZM5.3335 13.3327H13.3335C14.0699 13.3327 14.6668 12.7357 14.6668 11.9993V10.666C14.6668 9.92964 14.0699 9.33268 13.3335 9.33268H5.3335C4.59712 9.33268 4.00016 9.92964 4.00016 10.666V11.9993C4.00016 12.7357 4.59712 13.3327 5.3335 13.3327Z" stroke="white" stroke-linecap="round" stroke-linejoin="round"/>
</svg>
