<svg width="16" height="16" viewBox="0 0 16 16" fill="none" xmlns="http://www.w3.org/2000/svg">
<g clip-path="url(#clip0_117_3484)">
<path d="M8.00016 14.666V1.33268M2.66683 12.666H4.00016C4.73654 12.666 5.3335 12.0691 5.3335 11.3327V4.66602C5.3335 3.92964 4.73654 3.33268 4.00016 3.33268H2.66683C1.93045 3.33268 1.3335 3.92964 1.3335 4.66602V11.3327C1.3335 12.0691 1.93045 12.666 2.66683 12.666ZM12.0002 11.3327H13.3335C14.0699 11.3327 14.6668 10.7357 14.6668 9.99935V5.99935C14.6668 5.26297 14.0699 4.66602 13.3335 4.66602H12.0002C11.2638 4.66602 10.6668 5.26297 10.6668 5.99935V9.99935C10.6668 10.7357 11.2638 11.3327 12.0002 11.3327Z" stroke="#71717A" stroke-linecap="round" stroke-linejoin="round"/>
</g>
<defs>
<clipPath id="clip0_117_3484">
<rect width="16" height="16" fill="white" transform="matrix(1 0 0 -1 0 16)"/>
</clipPath>
</defs>
</svg>
