<svg width="20" height="20" viewBox="0 0 20 20" fill="none" xmlns="http://www.w3.org/2000/svg">
<path d="M9.99984 1.66602H7.08317C6.30962 1.66602 5.56776 1.97331 5.02078 2.52029C4.47379 3.06727 4.1665 3.80913 4.1665 4.58268C4.1665 5.35623 4.47379 6.0981 5.02078 6.64508C5.56776 7.19206 6.30962 7.49935 7.08317 7.49935M9.99984 1.66602V7.49935M9.99984 1.66602H12.9165C13.2995 1.66602 13.6788 1.74146 14.0327 1.88803C14.3865 2.03461 14.7081 2.24945 14.9789 2.52029C15.2497 2.79112 15.4646 3.11266 15.6112 3.46652C15.7577 3.82039 15.8332 4.19966 15.8332 4.58268C15.8332 4.9657 15.7577 5.34498 15.6112 5.69884C15.4646 6.05271 15.2497 6.37424 14.9789 6.64508C14.7081 6.91591 14.3865 7.13075 14.0327 7.27733C13.6788 7.42391 13.2995 7.49935 12.9165 7.49935M9.99984 7.49935H7.08317M9.99984 7.49935H12.9165M9.99984 7.49935V13.3327M7.08317 7.49935C6.30962 7.49935 5.56776 7.80664 5.02078 8.35362C4.47379 8.9006 4.1665 9.64247 4.1665 10.416C4.1665 11.1896 4.47379 11.9314 5.02078 12.4784C5.56776 13.0254 6.30962 13.3327 7.08317 13.3327M12.9165 7.49935C12.5335 7.49935 12.1542 7.57479 11.8003 7.72137C11.4465 7.86794 11.1249 8.08278 10.8541 8.35362C10.5833 8.62446 10.3684 8.94599 10.2219 9.29986C10.0753 9.65372 9.99984 10.033 9.99984 10.416C9.99984 10.799 10.0753 11.1783 10.2219 11.5322C10.3684 11.886 10.5833 12.2076 10.8541 12.4784C11.1249 12.7492 11.4465 12.9641 11.8003 13.1107C12.1542 13.2572 12.5335 13.3327 12.9165 13.3327C13.2995 13.3327 13.6788 13.2572 14.0327 13.1107C14.3865 12.9641 14.7081 12.7492 14.9789 12.4784C15.2497 12.2076 15.4646 11.886 15.6112 11.5322C15.7577 11.1783 15.8332 10.799 15.8332 10.416C15.8332 10.033 15.7577 9.65372 15.6112 9.29986C15.4646 8.94599 15.2497 8.62446 14.9789 8.35362C14.7081 8.08278 14.3865 7.86794 14.0327 7.72137C13.6788 7.57479 13.2995 7.49935 12.9165 7.49935ZM7.08317 13.3327C6.30962 13.3327 5.56776 13.64 5.02078 14.187C4.47379 14.7339 4.1665 15.4758 4.1665 16.2493C4.1665 17.0229 4.47379 17.7648 5.02078 18.3117C5.56776 18.8587 6.30962 19.166 7.08317 19.166C7.85672 19.166 8.59858 18.8587 9.14557 18.3117C9.69255 17.7648 9.99984 17.0229 9.99984 16.2493V13.3327M7.08317 13.3327H9.99984" stroke="#27272A" stroke-linecap="round" stroke-linejoin="round"/>
</svg>
