<svg width="16" height="16" viewBox="0 0 16 16" fill="none" xmlns="http://www.w3.org/2000/svg">
<path d="M6.00016 11.3327H4.66683C3.78277 11.3327 2.93493 10.9815 2.30981 10.3564C1.68469 9.73125 1.3335 8.8834 1.3335 7.99935C1.3335 7.11529 1.68469 6.26745 2.30981 5.64233C2.93493 5.01721 3.78277 4.66602 4.66683 4.66602H6.00016M10.0002 4.66602H11.3335C12.2176 4.66602 13.0654 5.01721 13.6905 5.64233C14.3156 6.26745 14.6668 7.11529 14.6668 7.99935C14.6668 8.8834 14.3156 9.73125 13.6905 10.3564C13.0654 10.9815 12.2176 11.3327 11.3335 11.3327H10.0002M5.3335 7.99935H10.6668" stroke="#64748B" stroke-linecap="round" stroke-linejoin="round"/>
</svg>
