<svg width="16" height="16" viewBox="0 0 16 16" fill="none" xmlns="http://www.w3.org/2000/svg">
<g clip-path="url(#clip0_117_3482)">
<path d="M1.3335 14.666V1.33268M5.3335 12.666H6.66683C7.40321 12.666 8.00016 12.0691 8.00016 11.3327V4.66602C8.00016 3.92964 7.40321 3.33268 6.66683 3.33268H5.3335C4.59712 3.33268 4.00016 3.92964 4.00016 4.66602V11.3327C4.00016 12.0691 4.59712 12.666 5.3335 12.666ZM12.0002 11.3327H13.3335C14.0699 11.3327 14.6668 10.7357 14.6668 9.99935V5.99935C14.6668 5.26297 14.0699 4.66602 13.3335 4.66602H12.0002C11.2638 4.66602 10.6668 5.26297 10.6668 5.99935V9.99935C10.6668 10.7357 11.2638 11.3327 12.0002 11.3327Z" stroke="#FFF2EE" stroke-linecap="round" stroke-linejoin="round"/>
</g>
<defs>
<clipPath id="clip0_117_3482">
<rect width="16" height="16" fill="white" transform="matrix(1 0 0 -1 0 16)"/>
</clipPath>
</defs>
</svg>
