<svg width="16" height="16" viewBox="0 0 16 16" fill="none" xmlns="http://www.w3.org/2000/svg">
<path d="M2 14.666V1.33268M14 14.666V1.33268M3.33333 12.666H4.66667C5.40305 12.666 6 12.0691 6 11.3327V4.66602C6 3.92964 5.40305 3.33268 4.66667 3.33268H3.33333C2.59695 3.33268 2 3.92964 2 4.66602V11.3327C2 12.0691 2.59695 12.666 3.33333 12.666ZM11.3333 11.3327H12.6667C13.403 11.3327 14 10.7357 14 9.99935V5.99935C14 5.26297 13.403 4.66602 12.6667 4.66602H11.3333C10.597 4.66602 10 5.26297 10 5.99935V9.99935C10 10.7357 10.597 11.3327 11.3333 11.3327Z" stroke="#71717A" stroke-linecap="round" stroke-linejoin="round"/>
</svg>
