<svg width="13" height="13" viewBox="0 0 13 13" fill="none" xmlns="http://www.w3.org/2000/svg">
<path fill-rule="evenodd" clip-rule="evenodd" d="M1.83333 0H4.5V1H1.83333C1.3731 1 1 1.3731 1 1.83333V4.5H0V1.83333C0 0.820811 0.820811 0 1.83333 0ZM0 8.5V11.1667C0 12.1792 0.820811 13 1.83333 13H4.5V12H1.83333C1.3731 12 1 11.6269 1 11.1667V8.5H0ZM8.5 13V12H11.1667C11.6269 12 12 11.6269 12 11.1667V8.5H13V11.1667C13 12.1792 12.1792 13 11.1667 13H8.5ZM13 4.5V1.83333C13 0.820811 12.1792 0 11.1667 0H8.5V1H11.1667C11.6269 1 12 1.3731 12 1.83333V4.5H13Z" fill="#71717A"/>
</svg>
