<svg width="14" height="14" viewBox="0 0 14 14" fill="none" xmlns="http://www.w3.org/2000/svg">
<path fill-rule="evenodd" clip-rule="evenodd" d="M2 0.5C2 0.223858 2.22386 0 2.5 0H11.5C11.7761 0 12 0.223858 12 0.5C12 0.776142 11.7761 1 11.5 1H2.5C2.22386 1 2 0.776142 2 0.5ZM1 2.49984C1 2.2237 0.776142 1.99984 0.5 1.99984C0.223858 1.99984 0 2.2237 0 2.49984V11.4998C0 11.776 0.223858 11.9998 0.5 11.9998C0.776142 11.9998 1 11.776 1 11.4998V2.49984ZM14 2.49984C14 2.2237 13.7761 1.99984 13.5 1.99984C13.2239 1.99984 13 2.2237 13 2.49984V11.4998C13 11.776 13.2239 11.9998 13.5 11.9998C13.7761 11.9998 14 11.776 14 11.4998V2.49984ZM2.5 12.9998C2.22386 12.9998 2 13.2237 2 13.4998C2 13.776 2.22386 13.9998 2.5 13.9998H11.5C11.7761 13.9998 12 13.776 12 13.4998C12 13.2237 11.7761 12.9998 11.5 12.9998H2.5Z" fill="black"/>
</svg>
