<svg width="13" height="13" viewBox="0 0 13 13" fill="none" xmlns="http://www.w3.org/2000/svg">
<path fill-rule="evenodd" clip-rule="evenodd" d="M2 0.5C2 0.223858 2.22386 0 2.5 0H10.5C10.7761 0 11 0.223858 11 0.5C11 0.776142 10.7761 1 10.5 1H2.5C2.22386 1 2 0.776142 2 0.5ZM1 2.5C1 2.22386 0.776142 2 0.5 2C0.223858 2 0 2.22386 0 2.5V10.5C0 10.7761 0.223858 11 0.5 11C0.776142 11 1 10.7761 1 10.5V2.5ZM13 2.5C13 2.22386 12.7761 2 12.5 2C12.2239 2 12 2.22386 12 2.5V10.5C12 10.7761 12.2239 11 12.5 11C12.7761 11 13 10.7761 13 10.5V2.5ZM2.5 12C2.22386 12 2 12.2239 2 12.5C2 12.7761 2.22386 13 2.5 13H10.5C10.7761 13 11 12.7761 11 12.5C11 12.2239 10.7761 12 10.5 12H2.5Z" fill="#71717A"/>
</svg>
