<svg width="48" height="19" viewBox="0 0 48 19" fill="none" xmlns="http://www.w3.org/2000/svg">
<path d="M0 15.2978V2.76086H8.16395V4.52782H1.98628V8.29732H7.49063V10.0643H1.98628V15.2978H0Z" fill="#373735"/>
<path d="M13.2868 15.4998C12.4115 15.4998 11.6091 15.2922 10.8797 14.8771C10.1615 14.462 9.58917 13.8955 9.16274 13.1775C8.73631 12.4595 8.52309 11.6461 8.52309 10.7374C8.52309 9.81746 8.73631 9.0041 9.16274 8.29732C9.58917 7.57932 10.1615 7.01838 10.8797 6.6145C11.5979 6.19941 12.4003 5.99186 13.2868 5.99186C14.1845 5.99186 14.9869 6.19941 15.6939 6.6145C16.4121 7.01838 16.9788 7.57932 17.394 8.29732C17.8204 9.0041 18.0337 9.81746 18.0337 10.7374C18.0337 11.6573 17.8204 12.4763 17.394 13.1943C16.9676 13.9123 16.3953 14.4788 15.6771 14.8939C14.9589 15.2978 14.1621 15.4998 13.2868 15.4998ZM13.2868 13.7328C13.8254 13.7328 14.3024 13.6038 14.7176 13.3458C15.1328 13.0877 15.4582 12.7343 15.6939 12.2856C15.9408 11.8256 16.0642 11.3095 16.0642 10.7374C16.0642 10.1652 15.9408 9.65478 15.6939 9.20603C15.4582 8.75728 15.1328 8.40389 14.7176 8.14586C14.3024 7.88783 13.8254 7.75882 13.2868 7.75882C12.7594 7.75882 12.2824 7.88783 11.856 8.14586C11.4408 8.40389 11.1097 8.75728 10.8629 9.20603C10.6272 9.65478 10.5094 10.1652 10.5094 10.7374C10.5094 11.3095 10.6272 11.8256 10.8629 12.2856C11.1097 12.7343 11.4408 13.0877 11.856 13.3458C12.2824 13.6038 12.7594 13.7328 13.2868 13.7328Z" fill="#373735"/>
<path d="M19.3857 15.2978V6.1938H21.2036V8.02807L21.0353 7.75882C21.2373 7.16422 21.5627 6.73791 22.0116 6.47988C22.4605 6.21063 22.9991 6.076 23.6276 6.076H24.1831V7.8093H23.3919C22.7635 7.8093 22.2529 8.00563 21.8601 8.39828C21.4786 8.77972 21.2878 9.32944 21.2878 10.0474V15.2978H19.3857Z" fill="#373735"/>
<path d="M29.3727 19C28.7106 19 28.099 18.8934 27.5379 18.6803C26.9768 18.4671 26.4943 18.1698 26.0903 17.7884C25.6863 17.4182 25.3833 16.9806 25.1813 16.4758L26.9319 15.7522C27.0891 16.1785 27.3752 16.5319 27.7904 16.8123C28.2169 17.0928 28.7387 17.233 29.3559 17.233C29.8384 17.233 30.2705 17.1377 30.652 16.947C31.0336 16.7675 31.3365 16.4982 31.561 16.1392C31.7854 15.7914 31.8976 15.3707 31.8976 14.8771V12.8241L32.2343 13.2111C31.9201 13.7945 31.4824 14.2376 30.9213 14.5405C30.3715 14.8435 29.7486 14.9949 29.0529 14.9949C28.2112 14.9949 27.4538 14.7986 26.7804 14.4059C26.1071 14.0133 25.5741 13.4748 25.1813 12.7904C24.7998 12.1061 24.609 11.3376 24.609 10.485C24.609 9.62113 24.7998 8.85264 25.1813 8.17952C25.5741 7.50639 26.1015 6.9735 26.7636 6.58085C27.4257 6.18819 28.1832 5.99186 29.0361 5.99186C29.7318 5.99186 30.349 6.14332 30.8877 6.44622C31.4375 6.73791 31.8864 7.16422 32.2343 7.72516L31.9818 8.19635V6.1938H33.7829V14.8771C33.7829 15.6624 33.5922 16.3636 33.2106 16.9806C32.8403 17.6089 32.3241 18.1025 31.662 18.4615C30.9999 18.8205 30.2368 19 29.3727 19ZM29.2717 13.228C29.7767 13.228 30.2256 13.1102 30.6183 12.8746C31.0111 12.6278 31.3197 12.3024 31.5442 11.8985C31.7798 11.4834 31.8976 11.0179 31.8976 10.5018C31.8976 9.98574 31.7798 9.52016 31.5442 9.10506C31.3085 8.68997 30.9943 8.36463 30.6015 8.12903C30.2087 7.88222 29.7655 7.75882 29.2717 7.75882C28.7555 7.75882 28.2954 7.88222 27.8914 8.12903C27.4874 8.36463 27.1676 8.68997 26.9319 9.10506C26.7075 9.50894 26.5953 9.97452 26.5953 10.5018C26.5953 11.0066 26.7075 11.4666 26.9319 11.8817C27.1676 12.2968 27.4874 12.6278 27.8914 12.8746C28.2954 13.1102 28.7555 13.228 29.2717 13.228Z" fill="#373735"/>
<path d="M39.78 15.4998C38.8711 15.4998 38.0631 15.2922 37.3561 14.8771C36.6603 14.4508 36.1161 13.8786 35.7233 13.1606C35.3305 12.4314 35.1342 11.6181 35.1342 10.7206C35.1342 9.80063 35.3305 8.98727 35.7233 8.28049C36.1273 7.57371 36.666 7.01838 37.3393 6.6145C38.0126 6.19941 38.7757 5.99186 39.6285 5.99186C40.3131 5.99186 40.9247 6.10966 41.4633 6.34525C42.002 6.58085 42.4565 6.90619 42.8268 7.32128C43.1971 7.72516 43.4777 8.19074 43.6684 8.71802C43.8704 9.2453 43.9714 9.80624 43.9714 10.4008C43.9714 10.5467 43.9658 10.6981 43.9546 10.8552C43.9434 11.0123 43.9209 11.1581 43.8873 11.2927H36.6323V9.77819H42.81L41.901 10.4681C42.0132 9.91842 41.9739 9.43041 41.7831 9.0041C41.6036 8.56657 41.323 8.22439 40.9415 7.97758C40.5712 7.71955 40.1335 7.59053 39.6285 7.59053C39.1236 7.59053 38.6747 7.71955 38.2819 7.97758C37.8891 8.22439 37.5861 8.58339 37.3729 9.05458C37.1597 9.51455 37.0756 10.0755 37.1204 10.7374C37.0643 11.3544 37.1485 11.8929 37.3729 12.3529C37.6086 12.8129 37.934 13.1719 38.3492 13.4299C38.7757 13.6879 39.2582 13.8169 39.7969 13.8169C40.3467 13.8169 40.8124 13.6935 41.194 13.4467C41.5868 13.1999 41.8954 12.8802 42.1198 12.4875L43.6684 13.2448C43.4889 13.6711 43.2083 14.0581 42.8268 14.4059C42.4565 14.7425 42.0076 15.0117 41.4802 15.2137C40.9639 15.4044 40.3972 15.4998 39.78 15.4998Z" fill="#373735"/>
<path d="M44.7757 5.39026V3.22337H42.6082V2.14532H44.7757V0H45.8541V2.14532H48V3.22337H45.8541V5.39026H44.7757Z" fill="#FF5F45"/>
</svg>
